<?xml version="1.0" standalone="no"?>
<!DOCTYPE svg PUBLIC "-//W3C//DTD SVG 1.1//EN" "http://www.w3.org/Graphics/SVG/1.1/DTD/svg11.dtd">
<svg width="100%" height="100%" viewBox="0 0 20 20" version="1.1" xmlns="http://www.w3.org/2000/svg" xmlns:xlink="http://www.w3.org/1999/xlink" xml:space="preserve" style="fill-rule:evenodd;clip-rule:evenodd;stroke-linejoin:round;stroke-miterlimit:1.41421;">
    <g transform="matrix(1.041,0,0,1.041,0,0)">
        <path d="M4.804,17.956C6.263,18.809 7.879,19.236 9.63,19.236C11.38,19.236 12.996,18.809 14.455,17.956C15.937,17.081 17.104,15.914 17.957,14.455C18.832,12.973 19.259,11.38 19.259,9.629C19.259,7.878 18.832,6.262 17.957,4.803C17.104,3.322 15.937,2.154 14.455,1.302C12.996,0.426 11.38,0 9.63,0C7.879,0 6.263,0.426 4.804,1.302C3.322,2.154 2.155,3.322 1.302,4.803C0.427,6.262 0,7.878 0,9.629C0,11.38 0.427,12.973 1.302,14.455C2.155,15.914 3.322,17.081 4.804,17.956ZM3.39,9.292L4.534,8.17C4.692,8.013 4.871,7.923 5.096,7.923C5.32,7.923 5.5,8.013 5.657,8.17L8.485,10.998L13.603,5.903C13.76,5.746 13.939,5.656 14.164,5.656C14.388,5.656 14.568,5.746 14.725,5.903L15.87,7.025C16.027,7.182 16.094,7.362 16.094,7.586C16.094,7.833 16.027,8.013 15.87,8.17L9.068,14.949C8.911,15.106 8.709,15.195 8.485,15.195C8.283,15.195 8.081,15.106 7.924,14.949L3.39,10.437C3.233,10.28 3.165,10.078 3.165,9.853C3.165,9.629 3.233,9.427 3.39,9.292Z" style="fill:rgb(10,161,255);"/>
    </g>
</svg>
